<svg width="64" height="64" viewBox="0 0 64 64" fill="none" xmlns="http://www.w3.org/2000/svg">
  <defs>
    <linearGradient id="grad1" x1="0%" y1="0%" x2="100%" y2="100%">
      <stop offset="0%" style="stop-color:#0F172A;stop-opacity:1" />
      <stop offset="100%" style="stop-color:#7C3AED;stop-opacity:1" />
    </linearGradient>
  </defs>
  <circle cx="32" cy="32" r="30" stroke="url(#grad1)" stroke-width="2" fill="none"/>
  <circle cx="32" cy="32" r="24" stroke="url(#grad1)" stroke-width="1.5" fill="none" opacity="0.7"/>
  <circle cx="32" cy="32" r="18" stroke="url(#grad1)" stroke-width="1.5" fill="none" opacity="0.5"/>
  <path d="M32 12L36 20H28L32 12Z" fill="url(#grad1)"/>
  <circle cx="32" cy="32" r="8" fill="none" stroke="#4F46E5" stroke-width="1.5"/>
  <circle cx="28" cy="30" r="1" fill="#4F46E5"/>
  <circle cx="36" cy="30" r="1" fill="#4F46E5"/>
  <path d="M30 34C30 34 31 35 32 35C33 35 34 34 34 34" stroke="#4F46E5" stroke-width="1" fill="none"/>
  <path d="M32 38L28 46C26 50 32 54 32 54C32 54 38 50 36 46L32 38Z" fill="url(#grad1)" opacity="0.8"/>
</svg>
