<svg xmlns="http://www.w3.org/2000/svg" viewBox="0 0 221 130">
  <rect y="0" x="0" height="130" width="221" fill="#2a4f9f"/>
  <g fill="#ffffff">
    <path d="m 71.562629,38.147959 0,29.705511 c 0,9.876539 5.870259,13.511034 12.666063,13.511063 l 0.441562,2e-6 c 6.051792,2.5e-5 6.374459,-3.453903 6.374459,-7.477708 l 0,-1.49698 -1.992684,0 c -4.177935,-2e-6 -6.627726,-0.837872 -6.627726,-5.829739 l 0,-20.824018 c 0,-4.478314 -2.55711,-7.588131 -7.512994,-7.588131 z"/>
    <path d="m 46.102705,27.283414 c -1.466076,-9e-6 -3.301451,0.972967 -5.307147,3.31085 -2.170566,2.530061 -2.922526,4.98097 -2.922526,7.395483 l 0,26.742756 c 0,12.968297 7.618598,16.735681 16.460399,16.735681 3.219495,0 9.441931,-0.904956 9.441931,-7.315064 l 0,-3.926405 -0.476071,0 c -2.055007,1.203741 -4.771688,1.530147 -7.650623,1.530147 -4.174251,0 -6.913963,-1.929862 -6.913963,-7.663273 l 0,-17.201062 8.408017,0 c 4.536211,0 6.684992,-2.695057 6.684992,-5.482614 l 0,-4.283117 -15.093009,0 0,-9.843382 z"/>
    <path d="m 179.87539,31.669431 0.2665,0 0.0481,-4.169787 c 0.0179,-1.550725 -0.65985,-4.22879 -1.62497,-5.402532 -2.98516,-4.189513 -9.781,-8.324837 -18.02657,-8.324837 -8.24557,0 -15.32216,4.429501 -17.87439,8.302083 -1.27507,2.132064 -1.58126,4.089779 -1.58126,5.29513 l 0,4.202557 0.32484,0 c 0.73039,-1.092731 2.19436,-2.955434 5.65238,-5.31366 1.98896,-1.356393 7.37138,-3.858177 13.47843,-3.858177 6.10705,0 9.67263,1.402923 13.27331,3.666975 2.42046,1.52196 4.93976,4.164844 6.06366,5.602248 z"/>
    <path d="m 122.94608,59.731007 5.6938,0 c 3.1252,0 5.658,2.39961 5.658,4.941012 l 0,7.211068 c 0,11.321702 -12.27287,11.450305 -16.59242,11.450305 -11.14203,0 -23.608688,-7.752066 -23.608688,-22.524898 0,-15.214305 11.515608,-24.257155 26.015308,-24.31509 7.77181,-0.03106 13.44364,3.646494 13.44364,9.734379 l 0,3.570812 -1.51459,0 c -2.83292,-2.404682 -7.76291,-3.677477 -12.89183,-3.677477 -7.82111,0 -13.84751,5.365041 -13.84751,13.232989 0,5.833722 1.94168,14.377628 13.97881,14.377628 2.92464,0 4.51973,-0.832244 4.51973,-2.753158 l 0,-5.602031 c 0,-1.320218 -0.55611,-4.756106 -0.85425,-5.459216 z"/>
    <path d="m 164.12182,89.713862 0.37793,0 -0.0148,6.017103 c -0.005,2.213982 -1.38092,6.535325 -3.05202,8.675395 -2.02894,3.40477 -12.01659,12.72665 -25.8138,12.72665 -13.7972,0 -23.64453,-7.65625 -27.58644,-13.7974 -1.82596,-3.07572 -2.37878,-6.50711 -2.37878,-8.367554 l 0,-5.33407 0.37943,0 c 1.30465,1.842731 4.82565,6.135255 8.61967,8.884678 3.25567,2.359296 9.29057,6.512696 19.76213,6.512696 10.47155,0 17.69849,-4.07924 20.51568,-6.014793 3.27576,-2.25061 6.29546,-4.850959 9.19097,-9.302705 z"/>
  </g>
</svg>
