<svg viewBox="0 0 221 130" xmlns="http://www.w3.org/2000/svg"><rect y="0" x="0" height="130" width="221" fill="#2a4f9f"/><g fill="#fff"><path d="M71.563 38.148v29.706c0 9.877 5.87 13.511 12.666 13.511h.442c6.052 0 6.374-3.454 6.374-7.478v-1.497h-1.993c-4.178 0-6.627-.838-6.627-5.83V46.138c0-4.478-2.557-7.588-7.513-7.588z"/><path d="M46.103 27.283c-1.466 0-3.301.973-5.307 3.311-2.171 2.53-2.923 4.981-2.923 7.395v26.743c0 12.969 7.619 16.736 16.461 16.736 3.22 0 9.442-.905 9.442-7.315V66.66h-.476c-2.055 1.204-4.772 1.53-7.651 1.53-4.174 0-6.914-1.93-6.914-7.663V43.326h8.408c4.536 0 6.685-2.695 6.685-5.483v-4.283H46.103v-9.843z"/><path d="M179.875 31.669l.267.001.048-4.17c.018-1.551-.66-4.229-1.625-5.403-2.985-4.19-9.781-8.325-18.027-8.325s-15.322 4.43-17.874 8.302c-1.275 2.132-1.581 4.09-1.581 5.295v4.203h.325c.73-1.093 2.194-2.956 5.652-5.314 1.989-1.356 7.371-3.858 13.478-3.858 6.107 0 9.673 1.403 13.274 3.667 2.42 1.522 4.94 4.165 6.063 5.602zM122.946 59.731h5.694c3.125 0 5.658 2.4 5.658 4.941v7.211c0 11.322-12.273 11.45-16.592 11.45-11.142 0-23.609-7.752-23.609-22.525 0-15.214 11.516-24.257 26.015-24.315 7.772-.031 13.444 3.647 13.444 9.735v3.57h-1.515c-2.833-2.404-7.763-3.677-12.892-3.677-7.821 0-13.848 5.365-13.848 13.233 0 5.834 1.942 14.378 13.979 14.378 2.925 0 4.52-.832 4.52-2.753v-5.602c0-1.32-.556-4.756-.854-5.459zM164.122 89.714h.378l-.015 6.017c-.005 2.214-1.381 6.535-3.052 8.675-2.029 3.405-12.017 12.727-25.814 12.727-13.797 0-23.644-7.656-27.586-13.797-1.826-3.076-2.379-6.507-2.379-8.368v-5.334h.379c1.305 1.843 4.826 6.135 8.62 8.885 3.256 2.359 9.291 6.513 19.762 6.513 10.472 0 17.699-4.08 20.516-6.015 3.276-2.251 6.295-4.851 9.191-9.303z"/></g></svg>
